<svg width="47" height="45" viewBox="0 0 47 45" fill="none" xmlns="http://www.w3.org/2000/svg">
<path d="M20.0871 2.58337C21.6469 0.0315979 25.3531 0.0316019 26.9129 2.58337L32.9684 12.49C33.3654 13.1394 33.9394 13.6621 34.6231 13.9967L44.6578 18.9071C47.6469 20.3698 47.6469 24.6302 44.6578 26.0929L34.6231 31.0033C33.9394 31.3379 33.3654 31.8606 32.9684 32.51L26.9129 42.4166C25.3531 44.9684 21.6469 44.9684 20.0871 42.4166L14.0316 32.51C13.6346 31.8606 13.0606 31.3379 12.3769 31.0033L2.34219 26.0929C-0.646915 24.6302 -0.646911 20.3698 2.34219 18.9071L12.3769 13.9967C13.0606 13.6621 13.6346 13.1394 14.0316 12.49L20.0871 2.58337Z" fill="#03051A"/>
</svg>
