<svg width="141" height="83" viewBox="0 0 141 83" fill="none" xmlns="http://www.w3.org/2000/svg">
<path d="M0 35C0 61.5097 21.4903 83 48 83H126C134.284 83 141 76.2843 141 68V60C141 26.8629 114.137 0 81 0H10C4.47715 0 0 4.47715 0 10V35Z" fill="#03051A"/>
<path d="M67.0871 21.5834C68.6469 19.0316 72.3531 19.0316 73.9129 21.5834L79.9684 31.49C80.3654 32.1394 80.9394 32.6621 81.6231 32.9967L91.6578 37.9071C94.6469 39.3698 94.6469 43.6302 91.6578 45.0929L81.6231 50.0033C80.9394 50.3379 80.3654 50.8606 79.9684 51.51L73.9129 61.4166C72.3531 63.9684 68.6469 63.9684 67.0871 61.4166L61.0316 51.51C60.6346 50.8606 60.0606 50.3379 59.3769 50.0033L49.3422 45.0929C46.3531 43.6302 46.3531 39.3698 49.3422 37.9071L59.3769 32.9967C60.0606 32.6621 60.6346 32.1394 61.0316 31.49L67.0871 21.5834Z" fill="#D9D9D9"/>
</svg>
