<svg width="56" height="45" viewBox="0 0 56 45" fill="none" xmlns="http://www.w3.org/2000/svg">
<path d="M23.3131 5.20683C25.7049 2.45624 29.9766 2.45623 32.3684 5.20682L37.3216 10.9031C38.0958 11.7934 39.1154 12.4358 40.2528 12.7497L46.5649 14.492C50.8051 15.6625 52.3862 20.8467 49.5207 24.1842L46.5416 27.6541C45.6124 28.7365 45.0992 30.1145 45.094 31.541L45.0754 36.7202C45.0612 40.6621 41.3145 43.5195 37.5093 42.4906L29.4069 40.2997C28.3812 40.0224 27.3003 40.0224 26.2746 40.2997L18.1722 42.4906C14.367 43.5195 10.6203 40.6621 10.6061 36.7202L10.5874 31.541C10.5823 30.1145 10.0691 28.7365 9.13984 27.6541L6.16072 24.1842C3.29531 20.8467 4.87638 15.6625 9.11661 14.492L15.4287 12.7497C16.5661 12.4358 17.5856 11.7934 18.3599 10.9031L23.3131 5.20683Z" fill="#D9D9D9"/>
<path d="M24.0876 22.8728L27.6727 19.7759V29.4537H24.0876H31.0934" stroke="#37264A" stroke-width="5" stroke-linecap="round" stroke-linejoin="round"/>
</svg>
