<svg width="239" height="34" viewBox="0 0 239 34" fill="none" xmlns="http://www.w3.org/2000/svg">
<path d="M218.849 2.4169C219.643 1.25462 221.357 1.25462 222.151 2.4169L226.29 8.47489C226.574 8.88932 227.002 9.18213 227.491 9.29519L234.769 10.9779C236.258 11.3221 236.827 13.1413 235.799 14.2719L231.16 19.3744C230.791 19.7803 230.605 20.3199 230.645 20.867L231.145 27.6541C231.252 29.1051 229.824 30.1812 228.459 29.6775L221.192 26.9965C220.746 26.8316 220.254 26.8316 219.808 26.9965L212.541 29.6775C211.176 30.1812 209.748 29.1051 209.855 27.6541L210.355 20.867C210.395 20.3199 210.209 19.7803 209.84 19.3744L205.201 14.2719C204.173 13.1413 204.742 11.3221 206.231 10.9779L213.509 9.29519C213.998 9.18213 214.426 8.88932 214.71 8.47489L218.849 2.4169Z" fill="#D9D9D9"/>
<path d="M15.8203 2.59889C16.6083 1.37972 18.3917 1.37972 19.1797 2.59888L22.9621 8.4511C23.2395 8.88025 23.6706 9.18696 24.167 9.30828L30.9755 10.9724C32.4256 11.3268 32.9904 13.0875 32.017 14.2193L27.5727 19.3869C27.2293 19.7862 27.0573 20.3048 27.0939 20.8302L27.5665 27.6034C27.6686 29.0673 26.2117 30.1391 24.8445 29.6058L18.2268 27.0245C17.7594 26.8422 17.2406 26.8422 16.7732 27.0245L10.1555 29.6058C8.78826 30.1391 7.33138 29.0673 7.43352 27.6034L7.90607 20.8302C7.94272 20.3048 7.77067 19.7862 7.42727 19.3869L2.98301 14.2193C2.00962 13.0875 2.57438 11.3268 4.02451 10.9724L10.833 9.30828C11.3294 9.18696 11.7605 8.88025 12.0379 8.4511L15.8203 2.59889Z" fill="#D9D9D9"/>
<path d="M116.82 2.59889C117.608 1.37972 119.392 1.37972 120.18 2.59888L123.962 8.4511C124.239 8.88025 124.671 9.18696 125.167 9.30828L131.975 10.9724C133.426 11.3268 133.99 13.0875 133.017 14.2193L128.573 19.3869C128.229 19.7862 128.057 20.3048 128.094 20.8302L128.566 27.6034C128.669 29.0673 127.212 30.1391 125.845 29.6058L119.227 27.0245C118.759 26.8422 118.241 26.8422 117.773 27.0245L111.155 29.6058C109.788 30.1391 108.331 29.0673 108.434 27.6034L108.906 20.8302C108.943 20.3048 108.771 19.7862 108.427 19.3869L103.983 14.2193C103.01 13.0875 103.574 11.3268 105.025 10.9724L111.833 9.30828C112.329 9.18696 112.761 8.88025 113.038 8.4511L116.82 2.59889Z" fill="#D9D9D9"/>
<path d="M166.849 2.4169C167.643 1.25462 169.357 1.25462 170.151 2.4169L174.29 8.47489C174.574 8.88932 175.002 9.18213 175.491 9.29519L182.769 10.9779C184.258 11.3221 184.827 13.1413 183.799 14.2719L179.16 19.3744C178.791 19.7803 178.605 20.3199 178.645 20.867L179.145 27.6541C179.252 29.1051 177.824 30.1812 176.459 29.6775L169.192 26.9965C168.746 26.8316 168.254 26.8316 167.808 26.9965L160.541 29.6775C159.176 30.1812 157.748 29.1051 157.855 27.6541L158.355 20.867C158.395 20.3199 158.209 19.7803 157.84 19.3744L153.201 14.2719C152.173 13.1413 152.742 11.3221 154.231 10.9779L161.509 9.29519C161.998 9.18213 162.426 8.88932 162.71 8.47489L166.849 2.4169Z" fill="#D9D9D9"/>
<path d="M65.8486 2.4169C66.6428 1.25462 68.3572 1.25462 69.1514 2.4169L73.2905 8.47489C73.5736 8.88932 74.0023 9.18213 74.4913 9.29519L81.7694 10.9779C83.2582 11.3221 83.8267 13.1413 82.7987 14.2719L78.1596 19.3744C77.7906 19.7803 77.6045 20.3199 77.6449 20.867L78.1454 27.6541C78.2525 29.1051 76.8236 30.1812 75.4585 29.6775L68.1923 26.9965C67.7455 26.8316 67.2545 26.8316 66.8077 26.9965L59.5415 29.6775C58.1764 30.1812 56.7475 29.1051 56.8546 27.6541L57.3551 20.867C57.3955 20.3199 57.2094 19.7803 56.8404 19.3744L52.2013 14.2719C51.1733 13.1413 51.7418 11.3221 53.2306 10.9779L60.5087 9.29519C60.9977 9.18213 61.4264 8.88932 61.7095 8.47489L65.8486 2.4169Z" fill="#D9D9D9"/>
</svg>
